<?xml version="1.0" encoding="UTF-8"?>
<!DOCTYPE svg PUBLIC "-//W3C//DTD SVG 1.1//EN" "http://www.w3.org/Graphics/SVG/1.1/DTD/svg11.dtd">
<svg xmlns="http://www.w3.org/2000/svg" version="1.1" width="640px" height="768px"
    style="shape-rendering:geometricPrecision; text-rendering:geometricPrecision; image-rendering:optimizeQuality; fill-rule:evenodd; clip-rule:evenodd"
    xmlns:xlink="http://www.w3.org/1999/xlink">
    <g>
        <path stroke="currentColor" style="opacity:0.012" fill="#9d9e9d" d="M 281.5,111.5 C 282.833,112.167 282.833,112.167 281.5,111.5 Z" />
    </g>
    <g>
        <path stroke="currentColor" style="opacity:0.235" fill="#b3b3b3"
            d="M 277.5,113.5 C 278.251,112.427 279.251,112.26 280.5,113C 279.552,113.483 278.552,113.649 277.5,113.5 Z" />
    </g>
    <g>
        <path stroke="currentColor" style="opacity:0.827" fill="#d4d4d4"
            d="M 275.5,114.5 C 275.842,113.662 276.508,113.328 277.5,113.5C 277.158,114.338 276.492,114.672 275.5,114.5 Z" />
    </g>
    <g>
        <path stroke="currentColor" style="opacity:0.384" fill="#cbcbcb"
            d="M 275.5,114.5 C 273.786,115.738 271.786,116.405 269.5,116.5C 271.102,114.926 273.102,114.259 275.5,114.5 Z" />
    </g>
    <g>
        <path stroke="currentColor" style="opacity:0.086" fill="#a9aaa9" d="M 297.5,117.5 C 298.833,118.167 298.833,118.167 297.5,117.5 Z" />
    </g>
    <g>
        <path stroke="currentColor" style="opacity:0.157" fill="#b1b1b1"
            d="M 293.5,119.5 C 293.897,118.475 294.563,118.308 295.5,119C 294.906,119.464 294.239,119.631 293.5,119.5 Z" />
    </g>
    <g>
        <path stroke="currentColor" style="opacity:0.086" fill="#aaabaa" d="M 266.5,119.5 C 267.833,120.167 267.833,120.167 266.5,119.5 Z" />
    </g>
    <g>
        <path stroke="currentColor" style="opacity:0.282" fill="#b7b7b7"
            d="M 293.5,119.5 C 293.103,120.525 292.437,120.692 291.5,120C 292.094,119.536 292.761,119.369 293.5,119.5 Z" />
    </g>
    <g>
        <path stroke="currentColor" style="opacity:0.133" fill="#b2b2b2"
            d="M 264.5,121.5 C 264.842,120.662 265.508,120.328 266.5,120.5C 266.158,121.338 265.492,121.672 264.5,121.5 Z" />
    </g>
    <g>
        <path stroke="currentColor" style="opacity:0.478" fill="#c0c0c0"
            d="M 288.5,121.5 C 288.897,120.475 289.563,120.308 290.5,121C 289.906,121.464 289.239,121.631 288.5,121.5 Z" />
    </g>
    <g>
        <path stroke="currentColor" style="opacity:0.478" fill="#bbbbbb"
            d="M 261.5,122.5 C 262.209,121.596 263.209,121.263 264.5,121.5C 263.791,122.404 262.791,122.737 261.5,122.5 Z" />
    </g>
    <g>
        <path stroke="currentColor" style="opacity:0.282" fill="#bbbcbb"
            d="M 286.5,122.5 C 286.842,121.662 287.508,121.328 288.5,121.5C 288.158,122.338 287.492,122.672 286.5,122.5 Z" />
    </g>
    <g>
        <path stroke="currentColor" style="opacity:0.251" fill="#c4c4c4"
            d="M 284.5,123.5 C 284.842,122.662 285.508,122.328 286.5,122.5C 286.158,123.338 285.492,123.672 284.5,123.5 Z" />
    </g>
    <g>
        <path stroke="currentColor" style="opacity:0.925" fill="#cdcdcd"
            d="M 281.5,124.5 C 282.209,123.596 283.209,123.263 284.5,123.5C 283.791,124.404 282.791,124.737 281.5,124.5 Z" />
    </g>
    <g>
        <path stroke="currentColor" style="opacity:0.733" fill="#d5d5d5"
            d="M 261.5,122.5 C 259.211,124.387 256.545,125.721 253.5,126.5C 255.612,124.229 258.279,122.896 261.5,122.5 Z" />
    </g>
    <g>
        <path stroke="currentColor" style="opacity:0.918" fill="#e6e6e6"
            d="M 279.5,125.5 C 279.842,124.662 280.508,124.328 281.5,124.5C 281.158,125.338 280.492,125.672 279.5,125.5 Z" />
    </g>
    <g>
        <path stroke="currentColor" style="opacity:0.459" fill="#d0d0d0"
            d="M 277.5,126.5 C 277.842,125.662 278.508,125.328 279.5,125.5C 279.158,126.338 278.492,126.672 277.5,126.5 Z" />
    </g>
    <g>
        <path stroke="currentColor" style="opacity:0.996" fill="#eaeaea"
            d="M 275.5,127.5 C 275.842,126.662 276.508,126.328 277.5,126.5C 277.158,127.338 276.492,127.672 275.5,127.5 Z" />
    </g>
    <g>
        <path stroke="currentColor" style="opacity:0.18" fill="#b3b4b3" d="M 257.5,127.5 C 258.833,128.167 258.833,128.167 257.5,127.5 Z" />
    </g>
    <g>
        <path stroke="currentColor" style="opacity:0.925" fill="#e0e0e0"
            d="M 273.5,128.5 C 273.842,127.662 274.508,127.328 275.5,127.5C 275.158,128.338 274.492,128.672 273.5,128.5 Z" />
    </g>
    <g>
        <path stroke="currentColor" style="opacity:0.004" fill="#adadad"
            d="M 255.5,129.5 C 255.842,128.662 256.508,128.328 257.5,128.5C 257.158,129.338 256.492,129.672 255.5,129.5 Z" />
    </g>
    <g>
        <path stroke="currentColor" style="opacity:0.804" fill="#d4d4d4"
            d="M 271.5,129.5 C 271.842,128.662 272.508,128.328 273.5,128.5C 273.158,129.338 272.492,129.672 271.5,129.5 Z" />
    </g>
    <g>
        <path stroke="currentColor" style="opacity:0.345" fill="#b5b5b5"
            d="M 253.5,130.5 C 253.842,129.662 254.508,129.328 255.5,129.5C 255.158,130.338 254.492,130.672 253.5,130.5 Z" />
    </g>
    <g>
        <path stroke="currentColor" style="opacity:0.478" fill="#b2bbc3"
            d="M 235.5,130.5 C 234.833,130.5 234.5,130.833 234.5,131.5C 232.776,131.461 232.443,131.794 233.5,132.5C 233.158,133.338 232.492,133.672 231.5,133.5C 229.776,133.461 229.443,133.794 230.5,134.5C 228.337,136.083 226.004,137.416 223.5,138.5C 218.794,137.618 214.461,138.618 210.5,141.5C 210.511,139.983 211.177,138.816 212.5,138C 214.869,137.464 216.869,136.297 218.5,134.5C 219.167,134.833 219.833,135.167 220.5,135.5C 226.956,131.257 233.623,128.257 240.5,126.5C 238.581,127.612 236.914,128.946 235.5,130.5 Z" />
    </g>
    <g>
        <path stroke="currentColor" style="opacity:0.58" fill="#cccdce" d="M 253.5,130.5 C 252.833,131.167 252.833,131.167 253.5,130.5 Z" />
    </g>
    <g>
        <path stroke="currentColor" style="opacity:0.208" fill="#cfcfcf"
            d="M 271.5,129.5 C 271.027,130.906 270.027,131.573 268.5,131.5C 268.973,130.094 269.973,129.427 271.5,129.5 Z" />
    </g>
    <g>
        <path stroke="currentColor" style="opacity:0.827" fill="#e8e8e8"
            d="M 266.5,132.5 C 266.842,131.662 267.508,131.328 268.5,131.5C 268.158,132.338 267.492,132.672 266.5,132.5 Z" />
    </g>
    <g>
        <path stroke="currentColor" style="opacity:0.18" fill="#c5c2c6"
            d="M 248.5,133.5 C 249.002,131.915 250.002,131.415 251.5,132C 250.756,133.039 249.756,133.539 248.5,133.5 Z" />
    </g>
    <g>
        <path stroke="currentColor" style="opacity:0.816" fill="#dcdddc" d="M 248.5,133.5 C 247.833,134.167 247.833,134.167 248.5,133.5 Z" />
    </g>
    <g>
        <path stroke="currentColor" style="opacity:0.078" fill="#aeaeae"
            d="M 245.5,135.5 C 245.842,134.662 246.508,134.328 247.5,134.5C 247.158,135.338 246.492,135.672 245.5,135.5 Z" />
    </g>
    <g>
        <path stroke="currentColor" style="opacity:0.439" fill="#c4c5c4" d="M 245.5,135.5 C 244.833,136.167 244.833,136.167 245.5,135.5 Z" />
    </g>
    <g>
        <path stroke="currentColor" style="opacity:1" fill="#e3e3e3"
            d="M 266.5,132.5 C 261.705,135.892 256.705,138.725 251.5,141C 255.472,136.162 260.472,133.329 266.5,132.5 Z" />
    </g>
    <g>
        <path stroke="currentColor" style="opacity:0.235" fill="#b7b8b7" d="M 242.5,136.5 C 243.833,137.167 243.833,137.167 242.5,136.5 Z" />
    </g>
    <g>
        <path stroke="currentColor" style="opacity:0.016" fill="#9e9f9e" d="M 242.5,137.5 C 241.833,138.167 241.833,138.167 242.5,137.5 Z" />
    </g>
    <g>
        <path stroke="currentColor" style="opacity:0.314" fill="#bdbebd" d="M 239.5,138.5 C 240.833,139.167 240.833,139.167 239.5,138.5 Z" />
    </g>
    <g>
        <path stroke="currentColor" style="opacity:0.018" fill="#9f9f9f"
            d="M 239.5,139.5 C 239.103,140.525 238.437,140.692 237.5,140C 238.094,139.536 238.761,139.369 239.5,139.5 Z" />
    </g>
    <g>
        <path stroke="currentColor" style="opacity:0.02" fill="#9fa09f" d="M 243.5,140.5 C 244.833,141.167 244.833,141.167 243.5,140.5 Z" />
    </g>
    <g>
        <path stroke="currentColor" style="opacity:0.125" fill="#aeafae" d="M 246.5,140.5 C 247.833,141.167 247.833,141.167 246.5,140.5 Z" />
    </g>
    <g>
        <path stroke="currentColor" style="opacity:1" fill="#fdfdfd"
            d="M 453.5,178.5 C 453.41,181.152 454.076,183.485 455.5,185.5C 486.299,311.699 516.633,438.032 546.5,564.5C 514.498,564.667 482.498,564.5 450.5,564C 443.464,527.985 437.131,491.818 431.5,455.5C 431.889,452.447 431.223,449.78 429.5,447.5C 425.254,420.606 420.254,393.94 414.5,367.5C 382.094,427.309 349.927,487.309 318,547.5C 311.672,560.991 305.839,574.658 300.5,588.5C 299.178,588.33 298.011,588.663 297,589.5C 296.708,587.674 296.875,585.841 297.5,584C 297.333,583.167 297.167,582.333 297,581.5C 295.992,586.541 295.492,586.208 295.5,580.5C 299.175,547.377 292.675,516.377 276,487.5C 267.979,473.442 259.479,459.775 250.5,446.5C 250.918,445.778 251.584,445.278 252.5,445C 251.692,444.692 251.025,444.192 250.5,443.5C 252.45,442.269 253.283,440.602 253,438.5C 251,438.5 249,438.5 247,438.5C 245.492,435.389 244.492,432.389 244,429.5C 242.43,429.67 240.597,430.003 238.5,430.5C 211.895,397.986 187.729,363.652 166,327.5C 156.419,309.656 150.252,290.656 147.5,270.5C 147.326,268.307 147.993,266.473 149.5,265C 147.362,262.717 146.362,259.883 146.5,256.5C 146.669,250.96 147.336,245.627 148.5,240.5C 148.334,244.846 148.501,249.179 149,253.5C 149.717,254.044 150.217,254.711 150.5,255.5C 150.182,260.032 150.515,264.366 151.5,268.5C 151.833,268.5 152.167,268.5 152.5,268.5C 153.167,268.5 153.833,268.5 154.5,268.5C 155.209,269.404 156.209,269.737 157.5,269.5C 157.5,270.5 157.5,271.5 157.5,272.5C 158.5,272.5 159.5,272.5 160.5,272.5C 160.819,268.7 161.819,268.534 163.5,272C 166.991,272.922 170.325,274.089 173.5,275.5C 172.531,279.524 172.364,283.524 173,287.5C 172.764,285.881 171.931,284.881 170.5,284.5C 167.668,282.514 165.002,280.181 162.5,277.5C 161.386,278.723 161.219,280.056 162,281.5C 163.667,282.733 165.167,284.067 166.5,285.5C 166.5,285.833 166.5,286.167 166.5,286.5C 167.5,287.167 168.5,287.833 169.5,288.5C 167.466,289.548 166.133,291.214 165.5,293.5C 167.524,295.358 169.691,297.025 172,298.5C 172.353,299.672 172.187,300.838 171.5,302C 172.009,303.169 172.842,304.002 174,304.5C 174.198,306.382 174.698,308.048 175.5,309.5C 178.237,310.944 180.237,313.111 181.5,316C 180.269,318.684 178.936,321.184 177.5,323.5C 179.819,322.833 182.153,322.666 184.5,323C 185.384,324.72 186.717,325.886 188.5,326.5C 190.221,329.873 192.721,331.54 196,331.5C 196.622,327.971 196.455,324.471 195.5,321C 198.117,318.276 200.117,315.109 201.5,311.5C 202.833,311.5 204.167,311.5 205.5,311.5C 205.351,310.448 205.517,309.448 206,308.5C 206.624,313.132 208.957,315.466 213,315.5C 213.52,313.711 213.187,312.044 212,310.5C 209.092,307.931 206.592,305.098 204.5,302C 205.126,301.25 205.626,300.416 206,299.5C 207.812,302.28 209.979,304.78 212.5,307C 215.827,307.535 218.994,307.035 222,305.5C 223.066,307.099 224.566,308.099 226.5,308.5C 227.151,302.45 224.984,297.45 220,293.5C 218.681,289.528 216.847,285.861 214.5,282.5C 214.444,277.161 213.444,271.994 211.5,267C 211.585,265.893 211.919,264.893 212.5,264C 211.551,263.383 210.718,263.549 210,264.5C 208.135,260.884 206.635,257.218 205.5,253.5C 205.557,247.862 205.557,242.195 205.5,236.5C 205.781,229.288 205.448,222.122 204.5,215C 205.218,211.539 205.718,208.039 206,204.5C 209.757,205.982 210.257,205.316 207.5,202.5C 208.167,201.833 208.833,201.167 209.5,200.5C 207.07,197.207 207.403,194.041 210.5,191C 211.577,190.53 212.577,190.697 213.5,191.5C 227.449,218.399 241.116,245.399 254.5,272.5C 254.854,274.541 254.854,276.374 254.5,278C 257.167,280.333 257.167,282.667 254.5,285C 255.744,285.456 256.577,284.956 257,283.5C 257.333,284.167 257.667,284.833 258,285.5C 258.671,284.748 259.504,284.414 260.5,284.5C 277.667,318.168 294.834,351.835 312,385.5C 355.682,302.135 399.348,218.802 443,135.5C 447.287,149.648 450.787,163.982 453.5,178.5 Z M 176.5,240.5 C 178.765,241.94 178.932,243.607 177,245.5C 176.506,243.866 176.34,242.199 176.5,240.5 Z M 185.5,261.5 C 185.5,262.167 185.5,262.833 185.5,263.5C 185.607,265.379 185.107,265.712 184,264.5C 183.26,261.824 182.927,259.158 183,256.5C 183.985,258.175 184.819,259.842 185.5,261.5 Z M 180.5,257.5 C 180.877,260.525 181.044,263.525 181,266.5C 180.768,265.263 180.268,264.263 179.5,263.5C 179.5,262.5 179.5,261.5 179.5,260.5C 179.263,259.209 179.596,258.209 180.5,257.5 Z M 198.5,278.5 C 199.686,279.961 199.686,281.295 198.5,282.5C 197.646,280.965 197.646,279.632 198.5,278.5 Z M 170.5,284.5 C 171.11,285.391 171.443,286.391 171.5,287.5C 168.495,286.625 168.162,285.625 170.5,284.5 Z M 187.5,284.5 C 188.167,284.5 188.833,284.5 189.5,284.5C 189.214,286.933 188.548,286.933 187.5,284.5 Z M 169.5,291.5 C 170.627,292.122 171.627,292.955 172.5,294C 170.511,294.519 169.511,293.686 169.5,291.5 Z" />
    </g>
    <g>
        <path stroke="currentColor" style="opacity:0.145" fill="#b0b1b0" d="M 243.5,141.5 C 242.833,142.167 242.833,142.167 243.5,141.5 Z" />
    </g>
    <g>
        <path stroke="currentColor" style="opacity:0.055" fill="#a5a6a5" d="M 246.5,141.5 C 245.833,142.167 245.833,142.167 246.5,141.5 Z" />
    </g>
    <g>
        <path stroke="currentColor" style="opacity:0.208" fill="#b7b6b6" d="M 233.5,143.5 C 234.833,144.167 234.833,144.167 233.5,143.5 Z" />
    </g>
    <g>
        <path stroke="currentColor" style="opacity:0.047" fill="#a4a5a4" d="M 246.5,143.5 C 247.833,144.167 247.833,144.167 246.5,143.5 Z" />
    </g>
    <g>
        <path stroke="currentColor" style="opacity:0.827" fill="#dddedf" d="M 233.5,144.5 C 232.833,145.167 232.833,145.167 233.5,144.5 Z" />
    </g>
    <g>
        <path stroke="currentColor" style="opacity:0.235" fill="#b7b8b7" d="M 246.5,144.5 C 245.833,145.167 245.833,145.167 246.5,144.5 Z" />
    </g>
    <g>
        <path stroke="currentColor" style="opacity:0.133" fill="#bfc0c2"
            d="M 232.5,145.5 C 232.027,146.906 231.027,147.573 229.5,147.5C 229.973,146.094 230.973,145.427 232.5,145.5 Z" />
    </g>
    <g>
        <path stroke="currentColor" style="opacity:0.788" fill="#d7dcde" d="M 229.5,147.5 C 228.833,148.167 228.833,148.167 229.5,147.5 Z" />
    </g>
    <g>
        <path stroke="currentColor" style="opacity:0.071" fill="#a4a9ab" d="M 228.5,148.5 C 227.833,149.167 227.833,149.167 228.5,148.5 Z" />
    </g>
    <g>
        <path stroke="currentColor" style="opacity:0.365" fill="#bec1bf" d="M 227.5,149.5 C 226.833,150.167 226.833,150.167 227.5,149.5 Z" />
    </g>
    <g>
        <path stroke="currentColor" style="opacity:0.329" fill="#bcbfbd" d="M 226.5,150.5 C 225.833,151.167 225.833,151.167 226.5,150.5 Z" />
    </g>
    <g>
        <path stroke="currentColor" style="opacity:0.776" fill="#d9dad9" d="M 225.5,151.5 C 224.833,152.167 224.833,152.167 225.5,151.5 Z" />
    </g>
    <g>
        <path stroke="currentColor" style="opacity:0.42" fill="#abb6ba"
            d="M 201.5,148.5 C 199.773,150.567 197.773,152.233 195.5,153.5C 196.474,150.504 198.474,148.837 201.5,148.5 Z" />
    </g>
    <g>
        <path stroke="currentColor" style="opacity:0.314" fill="#bdbebd" d="M 224.5,152.5 C 223.833,153.167 223.833,153.167 224.5,152.5 Z" />
    </g>
    <g>
        <path stroke="currentColor" style="opacity:0.851" fill="#c8c9c9"
            d="M 227.5,157.5 C 227.167,157.5 226.833,157.5 226.5,157.5C 227.203,155.284 228.536,153.451 230.5,152C 233.561,151.151 236.228,149.651 238.5,147.5C 238.833,147.667 239.167,147.833 239.5,148C 235.908,151.786 231.908,154.952 227.5,157.5 Z" />
    </g>
    <g>
        <path stroke="currentColor" style="opacity:0.125" fill="#aeafae" d="M 223.5,153.5 C 222.833,154.167 222.833,154.167 223.5,153.5 Z" />
    </g>
    <g>
        <path stroke="currentColor" style="opacity:0.42" fill="#c3c4c3" d="M 222.5,154.5 C 221.833,155.167 221.833,155.167 222.5,154.5 Z" />
    </g>
    <g>
        <path stroke="currentColor" style="opacity:0.733" fill="#cad2d9"
            d="M 223.5,138.5 C 215.384,141.986 209.217,147.653 205,155.5C 201.642,158.031 198.476,160.698 195.5,163.5C 191.57,166.126 189.57,169.793 189.5,174.5C 188.448,174.351 187.448,174.517 186.5,175C 185.5,176.667 184.167,178 182.5,179C 187.695,180.486 188.195,182.319 184,184.5C 183.581,183.328 182.915,182.328 182,181.5C 182.148,182.825 181.982,183.992 181.5,185C 182.973,185.71 183.64,186.876 183.5,188.5C 183.167,188.5 182.833,188.5 182.5,188.5C 182.167,185.833 181.833,185.833 181.5,188.5C 180.833,188.5 180.5,188.833 180.5,189.5C 179.167,189.833 179.167,190.167 180.5,190.5C 179.878,191.627 179.045,192.627 178,193.5C 178.195,191.874 178.195,190.207 178,188.5C 175.268,192.918 172.935,197.585 171,202.5C 170.617,201.944 170.117,201.611 169.5,201.5C 173.364,192.149 177.864,183.149 183,174.5C 187.167,169.5 191.333,164.5 195.5,159.5C 191.844,161.603 188.344,164.603 185,168.5C 166.375,191.874 157.208,218.541 157.5,248.5C 156.523,251.287 156.19,254.287 156.5,257.5C 155.5,257.5 154.5,257.5 153.5,257.5C 152.973,249.295 153.64,241.295 155.5,233.5C 154.838,230.532 154.505,227.532 154.5,224.5C 156.636,218.289 158.303,211.956 159.5,205.5C 162.383,203.747 163.883,201.08 164,197.5C 168.113,193.341 170.613,188.341 171.5,182.5C 171.5,182.167 171.5,181.833 171.5,181.5C 173.136,180.251 174.303,178.584 175,176.5C 175.414,176.957 175.914,177.291 176.5,177.5C 177.333,176.5 178.167,175.5 179,174.5C 178.645,173.041 178.811,171.707 179.5,170.5C 180.5,169.167 181.5,167.833 182.5,166.5C 183.167,166.5 183.5,166.167 183.5,165.5C 184.5,165.5 185.5,165.5 186.5,165.5C 186.351,164.448 186.517,163.448 187,162.5C 188.667,161.267 190.167,159.933 191.5,158.5C 191.833,158.5 192.167,158.5 192.5,158.5C 194.25,157.341 195.25,155.674 195.5,153.5C 197.773,152.233 199.773,150.567 201.5,148.5C 203.197,144.584 206.197,142.25 210.5,141.5C 214.461,138.618 218.794,137.618 223.5,138.5 Z" />
    </g>
    <g>
        <path stroke="currentColor" style="opacity:0.62" fill="#d8d9dd"
            d="M 221.5,155.5 C 221.611,156.117 221.944,156.617 222.5,157C 220.649,158.752 218.649,160.252 216.5,161.5C 217.419,158.911 219.086,156.911 221.5,155.5 Z" />
    </g>
    <g>
        <path stroke="currentColor" style="opacity:0.971" fill="#ebeef2"
            d="M 269.5,116.5 C 262.342,119.912 255.342,123.578 248.5,127.5C 250.216,127.371 251.883,127.038 253.5,126.5C 244.094,132.383 234.761,138.549 225.5,145C 218.549,151.782 211.882,158.615 205.5,165.5C 203.847,166.605 202.18,166.771 200.5,166C 201.673,169.11 201.173,169.277 199,166.5C 197.817,167.731 196.651,167.731 195.5,166.5C 196.791,165.473 196.791,164.473 195.5,163.5C 198.476,160.698 201.642,158.031 205,155.5C 209.217,147.653 215.384,141.986 223.5,138.5C 226.004,137.416 228.337,136.083 230.5,134.5C 231.167,134.5 231.5,134.167 231.5,133.5C 232.492,133.672 233.158,133.338 233.5,132.5C 234.167,132.5 234.5,132.167 234.5,131.5C 235.167,131.5 235.5,131.167 235.5,130.5C 246.396,124.865 257.729,120.199 269.5,116.5 Z M 248.5,127.5 C 244.677,130.916 240.343,133.582 235.5,135.5C 237.913,133.113 240.58,130.946 243.5,129C 245.154,128.392 246.821,127.892 248.5,127.5 Z" />
    </g>
    <g>
        <path stroke="currentColor" style="opacity:0.012" fill="#9d9e9d" d="M 231.5,158.5 C 232.833,159.167 232.833,159.167 231.5,158.5 Z" />
    </g>
    <g>
        <path stroke="currentColor" style="opacity:0.157" fill="#a8b2b8"
            d="M 195.5,153.5 C 195.25,155.674 194.25,157.341 192.5,158.5C 192.167,157.167 191.833,157.167 191.5,158.5C 190.167,159.933 188.667,161.267 187,162.5C 186.517,163.448 186.351,164.448 186.5,165.5C 185.5,165.5 184.5,165.5 183.5,165.5C 186.479,160.521 190.479,156.521 195.5,153.5 Z" />
    </g>
    <g>
        <path stroke="currentColor" style="opacity:1" fill="#fdfdfe" d="M 216.5,161.5 C 215.833,162.167 215.833,162.167 216.5,161.5 Z" />
    </g>
    <g>
        <path stroke="currentColor" style="opacity:0.882" fill="#e3e3e4"
            d="M 226.5,157.5 C 226.833,157.5 227.167,157.5 227.5,157.5C 224.833,160.833 221.833,163.833 218.5,166.5C 220.43,162.9 223.097,159.9 226.5,157.5 Z" />
    </g>
    <g>
        <path stroke="currentColor" style="opacity:0.004" fill="#959c9e"
            d="M 182.5,166.5 C 181.761,166.631 181.094,166.464 180.5,166C 181.437,165.308 182.103,165.475 182.5,166.5 Z" />
    </g>
    <g>
        <path stroke="currentColor" style="opacity:0.91" fill="#e1e2e5"
            d="M 215.5,162.5 C 213.312,166.207 210.645,169.54 207.5,172.5C 209.033,168.296 211.7,164.963 215.5,162.5 Z" />
    </g>
    <g>
        <path stroke="currentColor" style="opacity:0.58" fill="#cacdcb" d="M 218.5,166.5 C 217.833,167.167 217.833,167.167 218.5,166.5 Z" />
    </g>
    <g>
        <path stroke="currentColor" style="opacity:0.967" fill="#e5e7eb"
            d="M 195.5,163.5 C 196.791,164.473 196.791,165.473 195.5,166.5C 196.651,167.731 197.817,167.731 199,166.5C 201.173,169.277 201.673,169.11 200.5,166C 202.18,166.771 203.847,166.605 205.5,165.5C 202.167,170.167 198.833,174.833 195.5,179.5C 193.678,178.571 192.345,179.238 191.5,181.5C 191.5,181.833 191.5,182.167 191.5,182.5C 190.833,182.5 190.5,182.833 190.5,183.5C 190.5,183.833 190.5,184.167 190.5,184.5C 189.662,184.842 189.328,185.508 189.5,186.5C 188.167,186.833 188.167,187.167 189.5,187.5C 190.167,187.5 190.5,187.833 190.5,188.5C 188.086,194.079 186.086,199.746 184.5,205.5C 184.297,203.362 183.297,201.695 181.5,200.5C 181.808,199.692 182.308,199.025 183,198.5C 183.718,199.451 184.551,199.617 185.5,199C 184.313,197.981 183.313,196.814 182.5,195.5C 186.624,193.121 186.957,190.788 183.5,188.5C 183.64,186.876 182.973,185.71 181.5,185C 181.982,183.992 182.148,182.825 182,181.5C 182.915,182.328 183.581,183.328 184,184.5C 188.195,182.319 187.695,180.486 182.5,179C 184.167,178 185.5,176.667 186.5,175C 187.448,174.517 188.448,174.351 189.5,174.5C 189.57,169.793 191.57,166.126 195.5,163.5 Z" />
    </g>
    <g>
        <path stroke="currentColor" style="opacity:0.925" fill="#c7c8c9"
            d="M 217.5,167.5 C 217.262,169.404 216.262,170.738 214.5,171.5C 214.738,169.596 215.738,168.262 217.5,167.5 Z" />
    </g>
    <g>
        <path stroke="currentColor" style="opacity:0.804" fill="#dddedd"
            d="M 219.5,173.5 C 219.5,173.167 219.5,172.833 219.5,172.5C 220.794,171.71 221.961,170.71 223,169.5C 223.168,171.841 222.001,173.174 219.5,173.5 Z" />
    </g>
    <g>
        <path stroke="currentColor" style="opacity:0.098" fill="#a2a8b1"
            d="M 179.5,170.5 C 178.811,171.707 178.645,173.041 179,174.5C 178.167,175.5 177.333,176.5 176.5,177.5C 175.914,177.291 175.414,176.957 175,176.5C 174.303,178.584 173.136,180.251 171.5,181.5C 171.167,181.5 170.833,181.5 170.5,181.5C 171.599,178.9 173.266,176.734 175.5,175C 175.167,174.667 174.833,174.333 174.5,174C 175.885,172.351 177.551,171.184 179.5,170.5 Z" />
    </g>
    <g>
        <path stroke="currentColor" style="opacity:0.975" fill="#e8e9ea"
            d="M 219.5,172.5 C 218.167,172.833 218.167,173.167 219.5,173.5C 217.091,175.902 215.091,178.569 213.5,181.5C 211.626,183.095 210.793,182.761 211,180.5C 215.07,173.76 219.904,167.593 225.5,162C 226.167,161.333 226.833,161.333 227.5,162C 223.966,164.931 221.299,168.431 219.5,172.5 Z" />
    </g>
    <g>
        <path stroke="currentColor" style="opacity:0.004" fill="#999b9e" d="M 198.5,179.5 C 199.833,180.167 199.833,180.167 198.5,179.5 Z" />
    </g>
    <g>
        <path stroke="currentColor" style="opacity:0.863" fill="#dddee0"
            d="M 207.5,172.5 C 206.328,176.658 204.328,180.325 201.5,183.5C 201.807,178.872 203.807,175.205 207.5,172.5 Z" />
    </g>
    <g>
        <path stroke="currentColor" style="opacity:0.365" fill="#c6c8ce"
            d="M 195.5,179.5 C 194.071,182.696 192.405,185.696 190.5,188.5C 190.5,187.833 190.167,187.5 189.5,187.5C 189.5,187.167 189.5,186.833 189.5,186.5C 190.338,186.158 190.672,185.492 190.5,184.5C 191.833,184.167 191.833,183.833 190.5,183.5C 190.5,182.833 190.833,182.5 191.5,182.5C 192.833,182.167 192.833,181.833 191.5,181.5C 192.345,179.238 193.678,178.571 195.5,179.5 Z" />
    </g>
    <g>
        <path stroke="currentColor" style="opacity:0.992" fill="#d4d5d7"
            d="M 214.5,171.5 C 213.287,174.225 211.454,176.559 209,178.5C 208.421,179.928 208.588,181.262 209.5,182.5C 208.5,182.5 207.5,182.5 206.5,182.5C 207.458,177.581 210.125,173.915 214.5,171.5 Z" />
    </g>
    <g>
        <path stroke="currentColor" style="opacity:0.961" fill="#d9d9d9"
            d="M 453.5,178.5 C 454.924,180.515 455.59,182.848 455.5,185.5C 454.076,183.485 453.41,181.152 453.5,178.5 Z" />
    </g>
    <g>
        <path stroke="currentColor" style="opacity:0.208" fill="#c1c5c7"
            d="M 201.5,183.5 C 200.921,186.331 199.588,188.664 197.5,190.5C 198.079,187.669 199.412,185.336 201.5,183.5 Z" />
    </g>
    <g>
        <path stroke="currentColor" style="opacity:0.298" fill="#b0b7be"
            d="M 170.5,181.5 C 170.5,182.167 170.833,182.5 171.5,182.5C 170.613,188.341 168.113,193.341 164,197.5C 163.883,201.08 162.383,203.747 159.5,205.5C 158.833,206.167 158.167,206.833 157.5,207.5C 160.281,197.937 164.615,189.27 170.5,181.5 Z" />
    </g>
    <g>
        <path stroke="currentColor" style="opacity:1" fill="#f9fbfc"
            d="M 200.5,221.5 C 198.292,223.595 197.125,226.262 197,229.5C 196.664,225.311 196.164,221.144 195.5,217C 195.509,215.596 196.009,214.43 197,213.5C 198.011,214.337 199.178,214.67 200.5,214.5C 200.97,211.654 200.137,209.321 198,207.5C 197.237,210.063 196.737,210.063 196.5,207.5C 197.653,204.554 198.653,201.554 199.5,198.5C 199.376,197.893 199.043,197.56 198.5,197.5C 198.5,196.833 198.833,196.5 199.5,196.5C 200.268,195.737 200.768,194.737 201,193.5C 201.741,194.641 202.575,194.641 203.5,193.5C 203.833,194.667 204.167,195.833 204.5,197C 203.624,199.754 203.624,202.421 204.5,205C 202.354,210.211 201.021,215.711 200.5,221.5 Z" />
    </g>
    <g>
        <path stroke="currentColor" style="opacity:0.22" fill="#b6b7b6" d="M 137.5,197.5 C 138.833,198.167 138.833,198.167 137.5,197.5 Z" />
    </g>
    <g>
        <path stroke="currentColor" style="opacity:0.329" fill="#bebfbe" d="M 137.5,198.5 C 136.833,199.167 136.833,199.167 137.5,198.5 Z" />
    </g>
    <g>
        <path stroke="currentColor" style="opacity:0.58" fill="#cfd2d4"
            d="M 199.5,192.5 C 199.5,193.833 199.5,195.167 199.5,196.5C 198.833,196.5 198.5,196.833 198.5,197.5C 197.763,199.305 196.763,200.971 195.5,202.5C 195.167,202 194.833,201.5 194.5,201C 196.126,198.594 197.459,196.094 198.5,193.5C 198.5,192.833 198.833,192.5 199.5,192.5 Z" />
    </g>
    <g>
        <path stroke="currentColor" style="opacity:0.816" fill="#dcdddc" d="M 136.5,199.5 C 135.833,200.167 135.833,200.167 136.5,199.5 Z" />
    </g>
    <g>
        <path stroke="currentColor" style="opacity:0.918" fill="#e8e9e8" d="M 135.5,200.5 C 134.833,201.167 134.833,201.167 135.5,200.5 Z" />
    </g>
    <g>
        <path stroke="currentColor" style="opacity:0.882" fill="#e3e4e3" d="M 134.5,201.5 C 133.833,202.167 133.833,202.167 134.5,201.5 Z" />
    </g>
    <g>
        <path stroke="currentColor" style="opacity:0.902" fill="#e5e6e5" d="M 133.5,202.5 C 132.833,203.167 132.833,203.167 133.5,202.5 Z" />
    </g>
    <g>
        <path stroke="currentColor" style="opacity:0.976" fill="#f2f3f2" d="M 132.5,203.5 C 131.833,204.167 131.833,204.167 132.5,203.5 Z" />
    </g>
    <g>
        <path stroke="currentColor" style="opacity:0.102" fill="#abaaaf"
            d="M 157.5,207.5 C 157.631,208.239 157.464,208.906 157,209.5C 156.308,208.563 156.475,207.897 157.5,207.5 Z" />
    </g>
    <g>
        <path stroke="currentColor" style="opacity:0.973" fill="#dedede"
            d="M 131.5,204.5 C 128.547,209.45 125.214,214.117 121.5,218.5C 121.5,217.167 120.833,216.5 119.5,216.5C 123.167,212.167 127.167,208.167 131.5,204.5 Z" />
    </g>
    <g>
        <path stroke="currentColor" style="opacity:0.235" fill="#b1b9bb"
            d="M 187.5,211.5 C 186.952,213.626 186.285,215.626 185.5,217.5C 185.784,215.585 185.451,213.919 184.5,212.5C 186.021,207.784 187.855,203.117 190,198.5C 189.374,202.799 188.541,207.132 187.5,211.5 Z" />
    </g>
    <g>
        <path stroke="currentColor" style="opacity:0.063" fill="#a8a8aa"
            d="M 155.5,210.5 C 156.525,210.897 156.692,211.563 156,212.5C 155.536,211.906 155.369,211.239 155.5,210.5 Z" />
    </g>
    <g>
        <path stroke="currentColor" style="opacity:0.055" fill="#9ea8ae" d="M 155.5,213.5 C 156.833,214.167 156.833,214.167 155.5,213.5 Z" />
    </g>
    <g>
        <path stroke="currentColor" style="opacity:0.975" fill="#f1f2f2"
            d="M 213.5,191.5 C 212.577,190.697 211.577,190.53 210.5,191C 207.403,194.041 207.07,197.207 209.5,200.5C 208.833,201.167 208.167,201.833 207.5,202.5C 210.257,205.316 209.757,205.982 206,204.5C 205.718,208.039 205.218,211.539 204.5,215C 205.448,222.122 205.781,229.288 205.5,236.5C 204.504,236.586 203.671,236.252 203,235.5C 202.241,230.293 202.408,225.126 203.5,220C 203.167,219.5 202.833,219 202.5,218.5C 201.824,219.602 201.158,220.602 200.5,221.5C 201.021,215.711 202.354,210.211 204.5,205C 203.624,202.421 203.624,199.754 204.5,197C 204.167,195.833 203.833,194.667 203.5,193.5C 202.575,194.641 201.741,194.641 201,193.5C 200.768,194.737 200.268,195.737 199.5,196.5C 199.5,195.167 199.5,193.833 199.5,192.5C 201.029,188.632 203.363,185.299 206.5,182.5C 207.5,182.5 208.5,182.5 209.5,182.5C 211.023,186.1 212.357,185.767 213.5,181.5C 214.601,180.2 215.934,179.7 217.5,180C 217.016,183.276 215.349,186.276 212.5,189C 213.252,189.671 213.586,190.504 213.5,191.5 Z" />
    </g>
    <g>
        <path stroke="currentColor" style="opacity:0.031" fill="#99a1aa"
            d="M 155.5,214.5 C 155.649,215.552 155.483,216.552 155,217.5C 154.26,216.251 154.427,215.251 155.5,214.5 Z" />
    </g>
    <g>
        <path stroke="currentColor" style="opacity:0.655" fill="#c6cbce"
            d="M 187.5,211.5 C 187.833,211.5 188.167,211.5 188.5,211.5C 188.792,216.042 188.792,220.709 188.5,225.5C 187.629,228.003 186.963,230.67 186.5,233.5C 185.679,230.359 185.179,227.025 185,223.5C 184.722,224.416 184.222,225.082 183.5,225.5C 183.565,222.572 184.232,219.905 185.5,217.5C 186.285,215.626 186.952,213.626 187.5,211.5 Z" />
    </g>
    <g>
        <path stroke="currentColor" style="opacity:0.125" fill="#a5a9ac"
            d="M 151.5,227.5 C 151.351,226.448 151.517,225.448 152,224.5C 152.74,225.749 152.573,226.749 151.5,227.5 Z" />
    </g>
    <g>
        <path stroke="currentColor" style="opacity:0.733" fill="#c8ccd0"
            d="M 151.5,227.5 C 151.322,232.133 150.322,236.467 148.5,240.5C 148.425,235.808 149.425,231.474 151.5,227.5 Z" />
    </g>
    <g>
        <path stroke="currentColor" style="opacity:0.874" fill="#dae0e2"
            d="M 192.5,200.5 C 192.682,202.591 192.348,204.591 191.5,206.5C 191.667,206.833 191.833,207.167 192,207.5C 193.185,205.441 194.352,205.274 195.5,207C 193.214,223.395 192.88,239.728 194.5,256C 194.676,258.359 194.009,258.859 192.5,257.5C 190.762,246.751 189.428,236.084 188.5,225.5C 188.792,220.709 188.792,216.042 188.5,211.5C 189.858,207.752 191.191,204.086 192.5,200.5 Z" />
    </g>
    <g>
        <path stroke="currentColor" style="opacity:1" fill="#f3f3f3"
            d="M 119.5,216.5 C 120.833,216.5 121.5,217.167 121.5,218.5C 115.76,228.623 111.76,239.289 109.5,250.5C 109.565,250.062 109.399,249.728 109,249.5C 106.155,251.505 104.322,254.171 103.5,257.5C 102.094,256.332 100.928,256.665 100,258.5C 100.046,260.313 99.8797,261.979 99.5,263.5C 98.4024,259.639 97.5691,259.639 97,263.5C 96.6174,262.944 96.1174,262.611 95.5,262.5C 99.8369,245.156 107.837,229.823 119.5,216.5 Z" />
    </g>
    <g>
        <path stroke="currentColor" style="opacity:0.894" fill="#dae0e3"
            d="M 186.5,233.5 C 186.665,236.85 186.498,240.183 186,243.5C 184.562,244.9 183.729,246.567 183.5,248.5C 182.167,248.5 180.833,248.5 179.5,248.5C 179.5,249.833 179.5,251.167 179.5,252.5C 179.167,252.5 178.833,252.5 178.5,252.5C 176.32,247.938 174.987,243.104 174.5,238C 175.833,238 177.167,238 178.5,238C 178.043,237.586 177.709,237.086 177.5,236.5C 178.688,233.979 180.022,231.645 181.5,229.5C 181.187,232.247 181.52,234.914 182.5,237.5C 182.969,233.359 183.303,229.359 183.5,225.5C 184.222,225.082 184.722,224.416 185,223.5C 185.179,227.025 185.679,230.359 186.5,233.5 Z M 176.5,240.5 C 176.34,242.199 176.506,243.866 177,245.5C 178.932,243.607 178.765,241.94 176.5,240.5 Z" />
    </g>
    <g>
        <path stroke="currentColor" style="opacity:0.102" fill="#acb2b8"
            d="M 154.5,224.5 C 154.505,227.532 154.838,230.532 155.5,233.5C 153.64,241.295 152.973,249.295 153.5,257.5C 153.57,261.553 154.904,265.053 157.5,268C 156.552,268.483 155.552,268.649 154.5,268.5C 153.833,268.5 153.167,268.5 152.5,268.5C 152.167,261.833 151.833,261.833 151.5,268.5C 150.515,264.366 150.182,260.032 150.5,255.5C 151.33,245.039 152.663,234.705 154.5,224.5 Z" />
    </g>
    <g>
        <path stroke="currentColor" style="opacity:1" fill="#fbfbfb"
            d="M 109.5,250.5 C 107.948,272.958 112.115,294.291 122,314.5C 128.478,327.457 135.478,340.123 143,352.5C 170.177,390.684 196.177,429.684 221,469.5C 236.672,496.517 246.339,525.517 250,556.5C 252.084,587.832 244.917,616.832 228.5,643.5C 226.883,642.411 226.05,640.744 226,638.5C 224.957,642.226 224.457,641.893 224.5,637.5C 228.836,616.069 228.336,594.735 223,573.5C 214.273,545.642 202.273,519.309 187,494.5C 166.604,462.432 146.604,430.098 127,397.5C 112.742,373.318 102.075,347.651 95,320.5C 90.1929,301.065 90.3595,281.731 95.5,262.5C 96.1174,262.611 96.6174,262.944 97,263.5C 97.5691,259.639 98.4024,259.639 99.5,263.5C 99.8797,261.979 100.046,260.313 100,258.5C 100.928,256.665 102.094,256.332 103.5,257.5C 104.322,254.171 106.155,251.505 109,249.5C 109.399,249.728 109.565,250.062 109.5,250.5 Z" />
    </g>
    <g>
        <path stroke="currentColor" style="opacity:0.912" fill="#d6dbdf"
            d="M 169.5,203.5 C 167.534,213.916 165.867,224.416 164.5,235C 165.018,240.608 166.018,246.108 167.5,251.5C 168.675,251.281 169.675,251.614 170.5,252.5C 169.119,254.635 168.119,256.968 167.5,259.5C 167.026,257.138 166.692,254.805 166.5,252.5C 164.987,256.477 164.487,260.477 165,264.5C 163.698,263.915 162.531,263.249 161.5,262.5C 162.649,262.209 163.316,261.376 163.5,260C 161.05,246.159 161.217,232.325 164,218.5C 165.087,213.103 166.92,208.103 169.5,203.5 Z" />
    </g>
    <g>
        <path stroke="currentColor" style="opacity:0.18" fill="#b5b9bc"
            d="M 178.5,252.5 C 178.833,252.5 179.167,252.5 179.5,252.5C 179.5,253.167 179.5,253.833 179.5,254.5C 179.557,255.609 179.89,256.609 180.5,257.5C 179.596,258.209 179.263,259.209 179.5,260.5C 178.527,258.052 178.194,255.385 178.5,252.5 Z" />
    </g>
    <g>
        <path stroke="currentColor" style="opacity:0.961" fill="#ecedf0"
            d="M 197.5,190.5 C 197.263,191.791 197.596,192.791 198.5,193.5C 197.459,196.094 196.126,198.594 194.5,201C 194.833,201.5 195.167,202 195.5,202.5C 196.763,200.971 197.763,199.305 198.5,197.5C 199.043,197.56 199.376,197.893 199.5,198.5C 198.653,201.554 197.653,204.554 196.5,207.5C 196.737,210.063 197.237,210.063 198,207.5C 200.137,209.321 200.97,211.654 200.5,214.5C 199.178,214.67 198.011,214.337 197,213.5C 196.009,214.43 195.509,215.596 195.5,217C 196.164,221.144 196.664,225.311 197,229.5C 197.125,226.262 198.292,223.595 200.5,221.5C 201.158,220.602 201.824,219.602 202.5,218.5C 202.833,219 203.167,219.5 203.5,220C 202.408,225.126 202.241,230.293 203,235.5C 203.671,236.252 204.504,236.586 205.5,236.5C 205.557,242.195 205.557,247.862 205.5,253.5C 206.635,257.218 208.135,260.884 210,264.5C 210.718,263.549 211.551,263.383 212.5,264C 211.919,264.893 211.585,265.893 211.5,267C 213.444,271.994 214.444,277.161 214.5,282.5C 213.675,285.372 212.841,288.372 212,291.5C 211.311,292.357 210.478,293.023 209.5,293.5C 207.844,291.54 206.177,289.54 204.5,287.5C 203.833,287.833 203.167,288.167 202.5,288.5C 200.972,287.139 199.305,285.972 197.5,285C 198.252,284.329 198.586,283.496 198.5,282.5C 199.686,281.295 199.686,279.961 198.5,278.5C 199.239,278.631 199.906,278.464 200.5,278C 196.393,271.749 193.727,264.916 192.5,257.5C 194.009,258.859 194.676,258.359 194.5,256C 192.88,239.728 193.214,223.395 195.5,207C 194.352,205.274 193.185,205.441 192,207.5C 191.833,207.167 191.667,206.833 191.5,206.5C 192.348,204.591 192.682,202.591 192.5,200.5C 194.175,197.123 195.842,193.789 197.5,190.5 Z" />
    </g>
    <g>
        <path stroke="currentColor" style="opacity:0.958" fill="#e8edef"
            d="M 180.5,190.5 C 180.5,190.167 180.5,189.833 180.5,189.5C 181.167,189.5 181.5,189.167 181.5,188.5C 181.833,188.5 182.167,188.5 182.5,188.5C 182.833,188.5 183.167,188.5 183.5,188.5C 186.957,190.788 186.624,193.121 182.5,195.5C 183.313,196.814 184.313,197.981 185.5,199C 184.551,199.617 183.718,199.451 183,198.5C 182.308,199.025 181.808,199.692 181.5,200.5C 183.297,201.695 184.297,203.362 184.5,205.5C 183.838,207.47 183.172,209.47 182.5,211.5C 182.957,212.298 183.624,212.631 184.5,212.5C 183.377,214.581 182.377,216.747 181.5,219C 181.357,222.548 181.357,226.048 181.5,229.5C 180.022,231.645 178.688,233.979 177.5,236.5C 177.709,237.086 178.043,237.586 178.5,238C 177.167,238 175.833,238 174.5,238C 174.987,243.104 176.32,247.938 178.5,252.5C 178.194,255.385 178.527,258.052 179.5,260.5C 179.5,261.5 179.5,262.5 179.5,263.5C 177.876,263.36 176.71,264.027 176,265.5C 175.667,264.833 175.333,264.167 175,263.5C 174.654,265.218 174.154,266.885 173.5,268.5C 175.923,268.88 178.59,269.547 181.5,270.5C 181.926,276.639 182.926,282.972 184.5,289.5C 180.777,289.358 179.944,290.691 182,293.5C 184,290.833 186,290.833 188,293.5C 188.232,292.263 188.732,291.263 189.5,290.5C 189.511,292.017 190.177,293.184 191.5,294C 188.077,293.855 186.077,295.355 185.5,298.5C 180.706,299.373 178.373,297.373 178.5,292.5C 177.022,292.762 175.689,292.429 174.5,291.5C 173.66,290.265 172.66,289.265 171.5,288.5C 171.5,288.167 171.5,287.833 171.5,287.5C 171.443,286.391 171.11,285.391 170.5,284.5C 171.931,284.881 172.764,285.881 173,287.5C 172.364,283.524 172.531,279.524 173.5,275.5C 170.325,274.089 166.991,272.922 163.5,272C 161.819,268.534 160.819,268.7 160.5,272.5C 159.5,272.5 158.5,272.5 157.5,272.5C 157.5,271.5 157.5,270.5 157.5,269.5C 156.209,269.737 155.209,269.404 154.5,268.5C 155.552,268.649 156.552,268.483 157.5,268C 154.904,265.053 153.57,261.553 153.5,257.5C 154.5,257.5 155.5,257.5 156.5,257.5C 156.19,254.287 156.523,251.287 157.5,248.5C 157.82,251.952 157.82,255.285 157.5,258.5C 158.521,260.188 159.855,261.521 161.5,262.5C 162.531,263.249 163.698,263.915 165,264.5C 164.487,260.477 164.987,256.477 166.5,252.5C 166.692,254.805 167.026,257.138 167.5,259.5C 168.119,256.968 169.119,254.635 170.5,252.5C 169.675,251.614 168.675,251.281 167.5,251.5C 166.018,246.108 165.018,240.608 164.5,235C 165.867,224.416 167.534,213.916 169.5,203.5C 169.5,202.833 169.5,202.167 169.5,201.5C 170.117,201.611 170.617,201.944 171,202.5C 172.935,197.585 175.268,192.918 178,188.5C 178.195,190.207 178.195,191.874 178,193.5C 179.045,192.627 179.878,191.627 180.5,190.5 Z" />
    </g>
    <g>
        <path stroke="currentColor" style="opacity:0.957" fill="#e3e7ea"
            d="M 185.5,261.5 C 184.819,259.842 183.985,258.175 183,256.5C 182.927,259.158 183.26,261.824 184,264.5C 185.107,265.712 185.607,265.379 185.5,263.5C 187.38,265.755 188.38,268.422 188.5,271.5C 185.402,271.413 185.068,271.913 187.5,273C 185.866,273.494 184.199,273.66 182.5,273.5C 182.785,271.712 182.452,270.045 181.5,268.5C 180.914,268.709 180.414,269.043 180,269.5C 179.505,267.527 179.338,265.527 179.5,263.5C 180.268,264.263 180.768,265.263 181,266.5C 181.044,263.525 180.877,260.525 180.5,257.5C 179.89,256.609 179.557,255.609 179.5,254.5C 181.708,252.857 183.541,253.19 185,255.5C 185,253.5 185,251.5 185,249.5C 186.356,248.62 187.856,248.286 189.5,248.5C 189.666,252.846 189.499,257.179 189,261.5C 187.56,256.236 186.393,256.236 185.5,261.5 Z" />
    </g>
    <g>
        <path stroke="currentColor" style="opacity:0.974" fill="#f0f2f5"
            d="M 188.5,225.5 C 189.428,236.084 190.762,246.751 192.5,257.5C 193.727,264.916 196.393,271.749 200.5,278C 199.906,278.464 199.239,278.631 198.5,278.5C 197.646,279.632 197.646,280.965 198.5,282.5C 197.542,282.953 196.708,283.619 196,284.5C 195.667,283.167 195.333,281.833 195,280.5C 194.722,281.416 194.222,282.082 193.5,282.5C 192.542,282.047 191.708,281.381 191,280.5C 190.694,282.951 191.194,285.284 192.5,287.5C 193.298,287.043 193.631,286.376 193.5,285.5C 194.474,286.635 195.641,287.635 197,288.5C 197.667,289.5 197.667,290.5 197,291.5C 194.618,289.548 192.118,289.215 189.5,290.5C 188.732,291.263 188.232,292.263 188,293.5C 186,290.833 184,290.833 182,293.5C 179.944,290.691 180.777,289.358 184.5,289.5C 182.926,282.972 181.926,276.639 181.5,270.5C 178.59,269.547 175.923,268.88 173.5,268.5C 174.154,266.885 174.654,265.218 175,263.5C 175.333,264.167 175.667,264.833 176,265.5C 176.71,264.027 177.876,263.36 179.5,263.5C 179.338,265.527 179.505,267.527 180,269.5C 180.414,269.043 180.914,268.709 181.5,268.5C 182.452,270.045 182.785,271.712 182.5,273.5C 184.199,273.66 185.866,273.494 187.5,273C 185.068,271.913 185.402,271.413 188.5,271.5C 188.38,268.422 187.38,265.755 185.5,263.5C 185.5,262.833 185.5,262.167 185.5,261.5C 186.393,256.236 187.56,256.236 189,261.5C 189.499,257.179 189.666,252.846 189.5,248.5C 187.856,248.286 186.356,248.62 185,249.5C 185,251.5 185,253.5 185,255.5C 183.541,253.19 181.708,252.857 179.5,254.5C 179.5,253.833 179.5,253.167 179.5,252.5C 179.5,251.167 179.5,249.833 179.5,248.5C 180.833,248.5 182.167,248.5 183.5,248.5C 183.729,246.567 184.562,244.9 186,243.5C 186.498,240.183 186.665,236.85 186.5,233.5C 186.963,230.67 187.629,228.003 188.5,225.5 Z M 187.5,284.5 C 188.167,284.5 188.833,284.5 189.5,284.5C 189.214,286.933 188.548,286.933 187.5,284.5 Z" />
    </g>
    <g>
        <path stroke="currentColor" style="opacity:0.989" fill="#ebebeb"
            d="M 254.5,272.5 C 257.008,276.182 259.008,280.182 260.5,284.5C 259.504,284.414 258.671,284.748 258,285.5C 257.667,284.833 257.333,284.167 257,283.5C 256.577,284.956 255.744,285.456 254.5,285C 257.167,282.667 257.167,280.333 254.5,278C 254.854,276.374 254.854,274.541 254.5,272.5 Z" />
    </g>
    <g>
        <path stroke="currentColor" style="opacity:0.565" fill="#c4c6c5"
            d="M 189.5,284.5 C 188.833,284.5 188.167,284.5 187.5,284.5C 185.681,283.064 185.348,281.397 186.5,279.5C 187.763,281.029 188.763,282.695 189.5,284.5 Z" />
    </g>
    <g>
        <path stroke="currentColor" style="opacity:0.314" fill="#c4c5c7"
            d="M 170.5,284.5 C 168.162,285.625 168.495,286.625 171.5,287.5C 171.5,287.833 171.5,288.167 171.5,288.5C 170.833,288.5 170.167,288.5 169.5,288.5C 168.5,287.833 167.5,287.167 166.5,286.5C 167.833,286.167 167.833,285.833 166.5,285.5C 165.167,284.067 163.667,282.733 162,281.5C 161.219,280.056 161.386,278.723 162.5,277.5C 165.002,280.181 167.668,282.514 170.5,284.5 Z" />
    </g>
    <g>
        <path stroke="currentColor" style="opacity:0.298" fill="#c2c2c6"
            d="M 193.5,282.5 C 193.5,283.5 193.5,284.5 193.5,285.5C 193.631,286.376 193.298,287.043 192.5,287.5C 191.194,285.284 190.694,282.951 191,280.5C 191.708,281.381 192.542,282.047 193.5,282.5 Z" />
    </g>
    <g>
        <path stroke="currentColor" style="opacity:1" fill="#f6f8f8"
            d="M 198.5,282.5 C 198.586,283.496 198.252,284.329 197.5,285C 199.305,285.972 200.972,287.139 202.5,288.5C 203.167,288.167 203.833,287.833 204.5,287.5C 206.177,289.54 207.844,291.54 209.5,293.5C 210.478,293.023 211.311,292.357 212,291.5C 212.841,288.372 213.675,285.372 214.5,282.5C 216.847,285.861 218.681,289.528 220,293.5C 224.984,297.45 227.151,302.45 226.5,308.5C 224.566,308.099 223.066,307.099 222,305.5C 218.994,307.035 215.827,307.535 212.5,307C 209.979,304.78 207.812,302.28 206,299.5C 205.626,300.416 205.126,301.25 204.5,302C 206.592,305.098 209.092,307.931 212,310.5C 213.187,312.044 213.52,313.711 213,315.5C 208.957,315.466 206.624,313.132 206,308.5C 205.517,309.448 205.351,310.448 205.5,311.5C 204.167,311.5 202.833,311.5 201.5,311.5C 199.706,310.075 198.039,308.408 196.5,306.5C 195.311,305.571 193.978,305.238 192.5,305.5C 191.937,309.901 192.271,314.401 193.5,319C 192.567,321.818 190.567,322.984 187.5,322.5C 185.234,320.807 184.9,318.64 186.5,316C 183.386,313.007 183.053,309.84 185.5,306.5C 184.68,304.889 183.346,304.222 181.5,304.5C 181.649,305.552 181.483,306.552 181,307.5C 179.333,306.5 177.667,305.5 176,304.5C 175.506,306.134 175.34,307.801 175.5,309.5C 174.698,308.048 174.198,306.382 174,304.5C 172.842,304.002 172.009,303.169 171.5,302C 172.187,300.838 172.353,299.672 172,298.5C 169.691,297.025 167.524,295.358 165.5,293.5C 166.133,291.214 167.466,289.548 169.5,288.5C 170.167,288.5 170.833,288.5 171.5,288.5C 172.66,289.265 173.66,290.265 174.5,291.5C 175.689,292.429 177.022,292.762 178.5,292.5C 178.373,297.373 180.706,299.373 185.5,298.5C 186.077,295.355 188.077,293.855 191.5,294C 190.177,293.184 189.511,292.017 189.5,290.5C 192.118,289.215 194.618,289.548 197,291.5C 197.667,290.5 197.667,289.5 197,288.5C 195.641,287.635 194.474,286.635 193.5,285.5C 193.5,284.5 193.5,283.5 193.5,282.5C 194.222,282.082 194.722,281.416 195,280.5C 195.333,281.833 195.667,283.167 196,284.5C 196.708,283.619 197.542,282.953 198.5,282.5 Z M 169.5,291.5 C 169.511,293.686 170.511,294.519 172.5,294C 171.627,292.955 170.627,292.122 169.5,291.5 Z" />
    </g>
    <g>
        <path stroke="currentColor" style="opacity:0.125" fill="#b6b8b7"
            d="M 201.5,304.5 C 199.663,304.361 199.33,303.694 200.5,302.5C 201.298,302.957 201.631,303.624 201.5,304.5 Z" />
    </g>
    <g>
        <path stroke="currentColor" style="opacity:0.012" fill="#aeb0af"
            d="M 201.5,304.5 C 202.848,305.527 203.348,306.86 203,308.5C 201.955,307.627 201.122,306.627 200.5,305.5C 201.167,305.5 201.5,305.167 201.5,304.5 Z" />
    </g>
    <g>
        <path stroke="currentColor" style="opacity:0.918" fill="#dde2e5"
            d="M 187.5,322.5 C 188.278,323.156 188.944,323.989 189.5,325C 189.43,325.765 189.097,326.265 188.5,326.5C 186.717,325.886 185.384,324.72 184.5,323C 182.153,322.666 179.819,322.833 177.5,323.5C 178.936,321.184 180.269,318.684 181.5,316C 180.237,313.111 178.237,310.944 175.5,309.5C 175.34,307.801 175.506,306.134 176,304.5C 177.667,305.5 179.333,306.5 181,307.5C 181.483,306.552 181.649,305.552 181.5,304.5C 183.346,304.222 184.68,304.889 185.5,306.5C 183.053,309.84 183.386,313.007 186.5,316C 184.9,318.64 185.234,320.807 187.5,322.5 Z" />
    </g>
    <g>
        <path stroke="currentColor" style="opacity:0.671" fill="#d9d9d9"
            d="M 167.5,311.5 C 171.31,312.754 171.31,313.754 167.5,314.5C 167.5,313.5 167.5,312.5 167.5,311.5 Z" />
    </g>
    <g>
        <path stroke="currentColor" style="opacity:0.877" fill="#e9e9e9"
            d="M 203.5,322.5 C 206.203,322.952 208.87,323.619 211.5,324.5C 208.107,326.081 206.773,328.747 207.5,332.5C 206.5,332.5 205.5,332.5 204.5,332.5C 204.384,329.14 204.051,325.807 203.5,322.5 Z" />
    </g>
    <g>
        <path stroke="currentColor" style="opacity:0.894" fill="#e7eaea"
            d="M 201.5,311.5 C 200.117,315.109 198.117,318.276 195.5,321C 196.455,324.471 196.622,327.971 196,331.5C 192.721,331.54 190.221,329.873 188.5,326.5C 189.097,326.265 189.43,325.765 189.5,325C 188.944,323.989 188.278,323.156 187.5,322.5C 190.567,322.984 192.567,321.818 193.5,319C 192.271,314.401 191.937,309.901 192.5,305.5C 193.978,305.238 195.311,305.571 196.5,306.5C 198.039,308.408 199.706,310.075 201.5,311.5 Z" />
    </g>
    <g>
        <path stroke="currentColor" style="opacity:0.984" fill="#f0f0f0"
            d="M 217.5,325.5 C 220.346,325.59 222.679,326.756 224.5,329C 226.807,329.779 228.807,329.279 230.5,327.5C 231.308,327.808 231.975,328.308 232.5,329C 228.836,333.465 225.002,333.631 221,329.5C 218.466,331.569 217.299,334.235 217.5,337.5C 214.833,337.5 212.167,337.5 209.5,337.5C 209.5,336.5 209.5,335.5 209.5,334.5C 215.184,334.478 216.85,331.811 214.5,326.5C 215.791,326.737 216.791,326.404 217.5,325.5 Z" />
    </g>
    <g>
        <path stroke="currentColor" style="opacity:0.384" fill="#cccccc"
            d="M 181.5,332.5 C 183.824,333.33 185.824,334.663 187.5,336.5C 184.309,337.352 182.309,336.019 181.5,332.5 Z" />
    </g>
    <g>
        <path stroke="currentColor" style="opacity:0.991" fill="#efefef"
            d="M 250.5,446.5 C 246.147,441.473 242.147,436.14 238.5,430.5C 240.597,430.003 242.43,429.67 244,429.5C 244.492,432.389 245.492,435.389 247,438.5C 249,438.5 251,438.5 253,438.5C 253.283,440.602 252.45,442.269 250.5,443.5C 251.025,444.192 251.692,444.692 252.5,445C 251.584,445.278 250.918,445.778 250.5,446.5 Z" />
    </g>
    <g>
        <path stroke="currentColor" style="opacity:0.99" fill="#d9d9d9"
            d="M 429.5,447.5 C 431.223,449.78 431.889,452.447 431.5,455.5C 430.469,453.039 429.802,450.373 429.5,447.5 Z" />
    </g>
    <g>
        <path stroke="currentColor" style="opacity:1" fill="#ededed"
            d="M 295.5,580.5 C 295.492,586.208 295.992,586.541 297,581.5C 297.167,582.333 297.333,583.167 297.5,584C 296.875,585.841 296.708,587.674 297,589.5C 298.011,588.663 299.178,588.33 300.5,588.5C 294.573,600.035 287.906,611.035 280.5,621.5C 286.963,608.265 291.963,594.598 295.5,580.5 Z" />
    </g>
    <g>
        <path stroke="currentColor" style="opacity:0.761" fill="#d8d9d8" d="M 280.5,621.5 C 279.833,622.167 279.833,622.167 280.5,621.5 Z" />
    </g>
    <g>
        <path stroke="currentColor" style="opacity:0.314" fill="#b7b7b7"
            d="M 279.5,622.5 C 279.672,623.492 279.338,624.158 278.5,624.5C 278.328,623.508 278.662,622.842 279.5,622.5 Z" />
    </g>
    <g>
        <path stroke="currentColor" style="opacity:0.039" fill="#a3a4a3" d="M 278.5,624.5 C 277.833,625.167 277.833,625.167 278.5,624.5 Z" />
    </g>
    <g>
        <path stroke="currentColor" style="opacity:0.931" fill="#dbdbdb"
            d="M 224.5,637.5 C 224.457,641.893 224.957,642.226 226,638.5C 226.05,640.744 226.883,642.411 228.5,643.5C 227.307,646.334 225.307,648.334 222.5,649.5C 222.67,648.178 222.337,647.011 221.5,646C 222.868,643.196 223.868,640.362 224.5,637.5 Z" />
    </g>
    <g>
        <path stroke="currentColor" style="opacity:0.365" fill="#bdbbbc"
            d="M 222.5,649.5 C 221.881,652.595 220.881,652.929 219.5,650.5C 220.325,649.614 221.325,649.281 222.5,649.5 Z" />
    </g>
    <g>
        <path stroke="currentColor" style="opacity:0.035" fill="#a4a3a3" d="M 219.5,654.5 C 218.833,653.167 218.833,653.167 219.5,654.5 Z" />
    </g>
    <g>
        <path stroke="currentColor" style="opacity:0.298" fill="#bdbcbc" d="M 220.5,653.5 C 221.833,654.167 221.833,654.167 220.5,653.5 Z" />
    </g>
    <g>
        <path stroke="currentColor" style="opacity:0.196" fill="#b6b5b5" d="M 218.5,654.5 C 217.833,655.167 217.833,655.167 218.5,654.5 Z" />
    </g>
    <g>
        <path stroke="currentColor" style="opacity:0.086" fill="#abaaaa"
            d="M 219.5,654.5 C 219.833,654.5 220.167,654.5 220.5,654.5C 220.315,655.17 219.981,655.17 219.5,654.5 Z" />
    </g>
</svg>